<?xml version="1.0" encoding="utf-8"?>
<!-- Generator: Adobe Illustrator 27.1.1, SVG Export Plug-In . SVG Version: 6.00 Build 0)  -->
<svg version="1.1" id="artwork" xmlns="http://www.w3.org/2000/svg" xmlns:xlink="http://www.w3.org/1999/xlink" x="0px" y="0px"
	 viewBox="0 0 1048.7 185.1" style="enable-background:new 0 0 1048.7 185.1;" xml:space="preserve">
<style type="text/css">
	.st0{fill:#FFFFFF;}
</style>
<path class="st0" d="M321.7,63.3c-9.3-11.7-22.4-17.6-39.2-17.6s-29.8,6.1-41.3,18.4c-11.5,12.3-17.2,27.3-17.2,45.2
	s5.7,32.9,17.2,45.2c11.5,12.3,25.2,18.4,41.3,18.4c16.9,0,29.9-5.9,39.2-17.6v14.2c17.2,0,31.1-13.9,31.1-31.1v-90h-31.1V63.3
	L321.7,63.3z M312.2,133.7c-6.3,6.3-14.3,9.5-24,9.5s-17.6-3.2-23.8-9.5c-6.3-6.3-9.4-14.5-9.4-24.4s3.1-18.1,9.4-24.4
	s14.2-9.5,23.8-9.5s17.6,3.2,24,9.5s9.5,14.5,9.5,24.4S318.5,127.4,312.2,133.7z"/>
<path class="st0" d="M555.3,45.7c-18.6,0-33.9,6.1-45.8,18.2c-11.9,12.1-17.8,27.3-17.8,45.4s6,33.5,18.1,45.5
	c12,12,28,18.1,47.9,18.1c23.1,0,40.6-8.6,52.5-25.8l-25-14.5c-6.1,8-15.1,12-27,12c-18.5,0-29.8-7.5-34-22.6H615
	c0.8-4.5,1.2-8.8,1.2-12.8c0-18-5.7-33.1-17.2-45.3C587.5,51.8,572.9,45.7,555.3,45.7L555.3,45.7z M523.7,98
	c1.8-7.7,5.4-13.7,10.8-17.9c5.5-4.2,12.4-6.4,20.7-6.4c7.1,0,13.4,2,18.9,6c5.5,4,9.2,10.1,11,18.3H523.7L523.7,98z"/>
<path class="st0" d="M706.8,45.1c-16.4,0-28.3,5.6-35.9,16.9V48.4h-31.1v121.1h31.1v-65.6c0-9.9,2.4-17.4,7.2-22.4
	c4.8-5,11.2-7.5,19.3-7.5c7.2,0,13,2.1,17.3,6.4c4.3,4.3,6.5,10.4,6.5,18.4v70.6h31.1V95c0-15.6-4.3-27.8-12.9-36.6
	C730.9,49.5,720,45.1,706.8,45.1L706.8,45.1z"/>
<path class="st0" d="M869.1,63.3c-9.2-11.7-22.2-17.6-39-17.6c-16.8,0-30.1,6.1-41.5,18.4s-17.2,27.3-17.2,45.2s5.7,32.9,17.2,45.2
	c11.5,12.3,25.3,18.4,41.5,18.4s29.9-5.9,39-17.6v14.2c17.2,0,31.1-13.9,31.1-31.1V0h-31.1V63.3z M859.7,133.7
	c-6.3,6.3-14.2,9.5-23.8,9.5s-17.6-3.2-24-9.5c-6.3-6.3-9.5-14.5-9.5-24.4s3.2-18.1,9.5-24.4c6.3-6.3,14.3-9.5,24-9.5
	s17.6,3.2,23.8,9.5s9.4,14.5,9.4,24.4S866,127.4,859.7,133.7z"/>
<path class="st0" d="M1030.2,64.1c-12.4-12.3-27.4-18.4-45.3-18.4s-32.9,6.1-45.2,18.4s-18.4,27.3-18.4,45.2s6.1,32.9,18.4,45.2
	c12.3,12.3,27.3,18.4,45.2,18.4s32.9-6.1,45.3-18.4c12.4-12.3,18.5-27.3,18.5-45.2S1042.5,76.4,1030.2,64.1L1030.2,64.1z
	 M1008.3,133.1c-6.3,6.3-14.1,9.4-23.4,9.4s-17.1-3.1-23.2-9.4c-6.2-6.3-9.3-14.2-9.3-23.8s3.1-17.6,9.3-23.8s13.9-9.4,23.2-9.4
	s17.1,3.1,23.4,9.4s9.4,14.2,9.4,23.8S1014.5,126.9,1008.3,133.1z"/>
<polygon class="st0" points="444.4,108.5 443.4,107 485.6,48.4 450.1,48.4 425.8,82.3 402.2,48.4 366.7,48.4 408.2,107 407.9,107.5 
	408.6,108.5 364.8,169.5 400.4,169.5 426.5,133.3 451.9,169.5 487.5,169.5 444.4,108.5 "/>
<polygon class="st0" points="72.9,0 72.9,7.2 72.9,107.8 0,56 0,0 "/>
<path class="st0" d="M72.9,107.8v77.3c12.4,0,24.2-3,34.6-8.3c6.9-3.5,13.3-8,18.8-13.3c14.6-14.1,23.8-33.9,23.8-55.8V53
	L72.9,107.8L72.9,107.8z"/>
</svg>
